<svg aria-hidden="true" style="position: absolute; width: 0; height: 0; overflow: hidden;" version="1.1" xmlns="http://www.w3.org/2000/svg" xmlns:xlink="http://www.w3.org/1999/xlink">
<defs>
<symbol id="icon-instagram" viewBox="0 0 32 32">
<path fill="#000" style="fill: var(--color1, #000)" d="M16.036 0h-0.073c-8.816 0-15.964 7.147-15.964 15.964v0.073c0 8.817 7.147 15.964 15.964 15.964h0.073c8.817 0 15.964-7.147 15.964-15.964v-0.073c0-8.816-7.147-15.964-15.964-15.964z"></path>
<path fill="#fff" style="fill: var(--color2, #fff)" d="M20.951 6.51h-9.902c-2.736 0-4.961 2.225-4.961 4.961v9.059c0 2.735 2.225 4.961 4.961 4.961h9.902c2.735 0 4.961-2.225 4.961-4.961v-9.059c0-2.736-2.225-4.961-4.961-4.961zM7.839 11.471c0-1.77 1.441-3.211 3.211-3.211h9.902c1.77 0 3.211 1.441 3.211 3.211v9.059c0 1.77-1.441 3.211-3.211 3.211h-9.902c-1.77 0-3.211-1.441-3.211-3.211v-9.059z"></path>
<path fill="#fff" style="fill: var(--color2, #fff)" d="M16 20.615c2.544 0 4.615-2.069 4.615-4.615s-2.069-4.615-4.615-4.615c-2.545 0-4.615 2.069-4.615 4.615s2.069 4.615 4.615 4.615zM16 13.136c1.58 0 2.864 1.285 2.864 2.865s-1.284 2.864-2.864 2.864c-1.58 0-2.864-1.284-2.864-2.864s1.284-2.865 2.864-2.865zM21.043 12.129c0.685 0 1.244-0.556 1.244-1.243s-0.557-1.244-1.244-1.244c-0.685 0-1.243 0.557-1.243 1.244s0.557 1.243 1.243 1.243z"></path>
</symbol>
<symbol id="icon-massenger" viewBox="0 0 32 32">
<path fill="#000" style="fill: var(--color1, #000)" d="M16.036 0h-0.073c-8.816 0-15.964 7.147-15.964 15.964v0.073c0 8.817 7.147 15.964 15.964 15.964h0.073c8.816 0 15.964-7.147 15.964-15.964v-0.073c0-8.816-7.147-15.964-15.964-15.964z"></path>
<path fill="#fff" style="fill: var(--color2, #fff)" d="M25.527 15.999v0.055c-0.026 4.58-3.302 8.406-7.635 9.283-0.294 0.058-0.591 0.104-0.893 0.137-0.327 0.034-0.661 0.053-0.998 0.053-1.323 0-2.583-0.27-3.729-0.76l-4.421 0.471c-0.755 0.081-1.312-0.689-0.999-1.38l1.188-2.631c-0.99-1.501-1.567-3.298-1.567-5.227 0-5.251 4.275-9.526 9.527-9.526 4.967 0 9.057 3.821 9.488 8.677 0.026 0.278 0.038 0.564 0.038 0.849z"></path>
<path fill="#000" style="fill: var(--color1, #000)" d="M20.581 13.218c0.427-0.35 1.013 0.174 0.713 0.637l-3.058 4.718c-0.225 0.347-0.698 0.43-1.029 0.18l-2.836-2.15c-0.087-0.066-0.21-0.064-0.295 0.006l-2.655 2.166c-0.427 0.349-1.012-0.175-0.712-0.638l2.932-4.52c0.225-0.348 0.698-0.431 1.029-0.181l2.784 2.109c0.089 0.066 0.211 0.064 0.296-0.006l2.832-2.321z"></path>
</symbol>
<symbol id="icon-facebook" viewBox="0 0 32 32">
<path fill="#1877f2" style="fill: var(--color3, #1877f2)" d="M32 16.001c0 8.081-5.99 14.762-13.772 15.846-0.728 0.101-1.472 0.154-2.228 0.154-0.872 0-1.729-0.069-2.563-0.204-7.619-1.227-13.438-7.832-13.438-15.795 0-8.837 7.164-16.001 15.999-16.001s16.001 7.164 16.001 16.001z"></path>
<path fill="#fff" style="fill: var(--color2, #fff)" d="M18.228 12.847v3.486h4.312l-0.683 4.695h-3.629v10.818c-0.728 0.101-1.472 0.154-2.228 0.154-0.872 0-1.729-0.070-2.563-0.204v-10.767h-3.977v-4.695h3.977v-4.265c0-2.646 2.145-4.792 4.792-4.792v0.002c0.008 0 0.015-0.002 0.022-0.002h4.289v4.061h-2.803c-0.833 0-1.509 0.676-1.509 1.509l-0.001 0.001z"></path>
</symbol>
<symbol id="icon-network-x" viewBox="0 0 32 32">
<path fill="#1c1c1b" style="fill: var(--color4, #1c1c1b)" d="M31.998 15.606c0 8.361-5.99 15.273-13.771 16.395-0.727 0.104-1.472 0.159-2.227 0.159-0.872 0-1.729-0.072-2.563-0.211-7.618-1.269-13.436-8.104-13.436-16.343 0-9.143 7.164-16.555 16-16.555s16 7.412 16 16.555h-0.002z"></path>
<path fill="#fff" style="fill: var(--color2, #fff)" d="M6.489 6.352l7.379 10.208-7.425 8.3h1.672l6.501-7.266 5.252 7.266h5.687l-7.794-10.782 6.911-7.726h-1.671l-5.987 6.692-4.837-6.692h-5.688zM8.946 7.625h2.612l11.537 15.96h-2.612l-11.537-15.96z"></path>
</symbol>
<symbol id="icon-telegram" viewBox="0 0 32 32">
<path fill="#00b0f2" style="fill: var(--color5, #00b0f2)" d="M16.107 0h-0.073c-8.816 0-15.964 7.147-15.964 15.964v0.073c0 8.817 7.147 15.964 15.964 15.964h0.073c8.816 0 15.963-7.147 15.963-15.964v-0.073c0-8.816-7.147-15.964-15.963-15.964z"></path>
<path fill="#fefffc" style="fill: var(--color6, #fefffc)" d="M6.13 15.455c0.045-0.022 0.090-0.044 0.133-0.064 0.76-0.352 1.53-0.682 2.299-1.011 0.041 0 0.111-0.048 0.15-0.064 0.059-0.026 0.119-0.050 0.178-0.076l0.342-0.147c0.229-0.097 0.456-0.195 0.685-0.293 0.456-0.195 0.913-0.39 1.369-0.586 0.913-0.39 1.826-0.781 2.739-1.172s1.826-0.781 2.739-1.172c0.913-0.39 1.826-0.781 2.739-1.172s1.826-0.781 2.739-1.172c0.203-0.087 0.423-0.217 0.64-0.256 0.183-0.033 0.361-0.095 0.545-0.13 0.349-0.066 0.733-0.093 1.067 0.052 0.115 0.050 0.222 0.121 0.311 0.21 0.424 0.419 0.364 1.108 0.275 1.697-0.624 4.11-1.249 8.221-1.874 12.331-0.085 0.564-0.202 1.183-0.647 1.539-0.377 0.302-0.913 0.335-1.378 0.207-0.465-0.129-0.876-0.399-1.278-0.665-1.669-1.105-3.34-2.211-5.009-3.316-0.397-0.262-0.839-0.605-0.834-1.082 0.002-0.287 0.174-0.543 0.349-0.77 1.451-1.892 3.544-3.193 5.101-4.998 0.22-0.255 0.392-0.714 0.091-0.861-0.179-0.087-0.386 0.031-0.549 0.145-2.058 1.429-4.116 2.86-6.174 4.289-0.672 0.466-1.376 0.946-2.185 1.061-0.724 0.103-1.453-0.099-2.154-0.305-0.587-0.173-1.174-0.35-1.758-0.533-0.311-0.096-0.631-0.201-0.871-0.419s-0.378-0.586-0.233-0.878c0.091-0.183 0.267-0.298 0.452-0.392l0.002 0.001z"></path>
</symbol>
<symbol id="icon-tiktok" viewBox="0 0 32 32">
<path fill="#0c0c0c" style="fill: var(--color7, #0c0c0c)" d="M16.036-1.333h-0.073c-8.816 0-15.964 7.147-15.964 15.964v0.073c0 8.817 7.147 15.964 15.964 15.964h0.073c8.817 0 15.964-7.147 15.964-15.964v-0.073c0-8.816-7.147-15.964-15.964-15.964z"></path>
<path fill="#ff004f" style="fill: var(--color8, #ff004f)" d="M24.112 11.376v3.021c-0.528-0.052-1.214-0.172-1.973-0.45-0.991-0.363-1.729-0.86-2.212-1.244v6.107l-0.012-0.019c0.008 0.121 0.012 0.244 0.012 0.369 0 3.033-2.468 5.501-5.501 5.501s-5.501-2.469-5.501-5.501c0-3.033 2.468-5.503 5.501-5.503 0.297 0 0.589 0.024 0.873 0.070v2.978c-0.274-0.097-0.567-0.15-0.873-0.15-1.436 0-2.605 1.168-2.605 2.605s1.169 2.605 2.605 2.605c1.436 0 2.606-1.169 2.606-2.605 0-0.054-0.001-0.108-0.005-0.161v-11.867h3.019c0.011 0.256 0.021 0.513 0.032 0.769 0.020 0.503 0.2 0.987 0.512 1.382 0.367 0.465 0.908 1.006 1.668 1.437 0.712 0.404 1.38 0.576 1.853 0.658v-0.002z"></path>
<path fill="#00f7ef" style="fill: var(--color9, #00f7ef)" d="M23.073 8.923v3.021c-0.528-0.052-1.214-0.172-1.973-0.45-0.991-0.363-1.729-0.86-2.212-1.244v6.107l-0.012-0.019c0.008 0.121 0.012 0.244 0.012 0.369 0 3.033-2.467 5.501-5.501 5.501s-5.501-2.469-5.501-5.501c0-3.033 2.468-5.503 5.501-5.503 0.297 0 0.589 0.024 0.873 0.069v2.978c-0.274-0.097-0.567-0.15-0.873-0.15-1.436 0-2.605 1.168-2.605 2.606s1.169 2.605 2.605 2.605c1.436 0 2.606-1.169 2.606-2.605 0-0.054-0.001-0.108-0.005-0.161v-11.869h3.019c0.011 0.256 0.021 0.513 0.032 0.769 0.020 0.503 0.2 0.987 0.512 1.382 0.367 0.465 0.908 1.006 1.668 1.437 0.712 0.402 1.38 0.576 1.853 0.658z"></path>
<path fill="#fff" style="fill: var(--color2, #fff)" d="M23.732 10.243v3.021c-0.528-0.052-1.214-0.172-1.973-0.45-0.991-0.363-1.729-0.86-2.212-1.244v6.107l-0.012-0.019c0.008 0.121 0.012 0.244 0.012 0.369 0 3.033-2.468 5.501-5.501 5.501s-5.501-2.469-5.501-5.501c0-3.033 2.468-5.503 5.501-5.503 0.297 0 0.589 0.024 0.873 0.070v2.978c-0.274-0.097-0.567-0.15-0.873-0.15-1.436 0-2.605 1.168-2.605 2.605s1.169 2.605 2.605 2.605 2.605-1.169 2.605-2.605c0-0.054-0.001-0.108-0.005-0.161v-11.867h3.019c0.011 0.256 0.021 0.513 0.033 0.769 0.020 0.503 0.2 0.987 0.512 1.382 0.367 0.465 0.908 1.006 1.668 1.437 0.712 0.402 1.38 0.576 1.853 0.658v-0.002z"></path>
</symbol>
<symbol id="icon-watsup" viewBox="0 0 32 32">
<path fill="#00e510" style="fill: var(--color10, #00e510)" d="M16.036 0h-0.073c-8.816 0-15.964 7.147-15.964 15.964v0.073c0 8.817 7.147 15.964 15.964 15.964h0.073c8.817 0 15.964-7.147 15.964-15.964v-0.073c0-8.816-7.147-15.964-15.964-15.964z"></path>
<path fill="#fdfdfd" style="fill: var(--color11, #fdfdfd)" d="M19.119 20.681c-4.095 0-7.427-3.333-7.429-7.429 0.001-1.038 0.846-1.882 1.882-1.882 0.107 0 0.212 0.009 0.313 0.027 0.222 0.037 0.433 0.112 0.627 0.225 0.028 0.017 0.047 0.044 0.051 0.075l0.433 2.728c0.006 0.033-0.005 0.064-0.026 0.087-0.239 0.265-0.544 0.455-0.883 0.551l-0.164 0.046 0.062 0.158c0.558 1.422 1.695 2.557 3.118 3.118l0.158 0.063 0.046-0.164c0.095-0.34 0.286-0.645 0.55-0.883 0.019-0.018 0.045-0.027 0.071-0.027 0.006 0 0.011 0 0.018 0.001l2.728 0.433c0.033 0.006 0.059 0.024 0.076 0.052 0.112 0.194 0.187 0.406 0.225 0.628 0.018 0.099 0.026 0.203 0.026 0.312 0 1.037-0.844 1.881-1.882 1.882z"></path>
<path fill="#fdfdfd" style="fill: var(--color11, #fdfdfd)" d="M26.381 15.101c-0.221-2.496-1.364-4.811-3.22-6.518-1.867-1.718-4.288-2.664-6.821-2.664-5.559 0-10.081 4.523-10.081 10.081 0 1.865 0.515 3.683 1.489 5.266l-2.173 4.81 6.957-0.741c1.21 0.495 2.49 0.747 3.807 0.747 0.346 0 0.702-0.018 1.058-0.055 0.314-0.034 0.631-0.083 0.943-0.146 4.655-0.941 8.053-5.072 8.080-9.827v-0.054c0-0.303-0.013-0.605-0.040-0.899h0.001zM12.8 23.224l-3.849 0.41 1.149-2.546-0.23-0.308c-0.017-0.022-0.034-0.045-0.053-0.071-0.998-1.378-1.525-3.006-1.525-4.708 0-4.437 3.61-8.047 8.047-8.047 4.157 0 7.681 3.243 8.020 7.384 0.018 0.222 0.028 0.445 0.028 0.665 0 0.063-0.001 0.125-0.002 0.191-0.085 3.712-2.678 6.865-6.306 7.667-0.277 0.062-0.561 0.109-0.843 0.139-0.294 0.034-0.595 0.051-0.895 0.051-1.066 0-2.102-0.206-3.081-0.614-0.109-0.044-0.215-0.091-0.315-0.139l-0.146-0.071-0.001-0.002z"></path>
</symbol>
<symbol id="icon-sms-red" viewBox="0 0 32 32">
<path d="M5.474 24.143v0zM7.025 19.784l-1.333-0.016v0.016h1.333zM7.057 17.148l1.333 0.016v-0.016h-1.333zM26.534 24.164v0zM25.042 19.784l-1.333-0.017v0.017h1.333zM25.074 17.278l1.333 0.017v-0.017h-1.333zM21.6 25.386c0-0.736-0.597-1.333-1.333-1.333s-1.333 0.597-1.333 1.333h2.667zM13.067 25.386c0-0.736-0.597-1.333-1.333-1.333s-1.333 0.597-1.333 1.333h2.667zM6.533 24.954c0.908-1.185 1.826-2.974 1.826-5.171h-2.667c0 1.442-0.606 2.674-1.276 3.549l2.117 1.622zM8.358 19.8l0.033-2.636-2.666-0.033-0.033 2.636 2.666 0.033zM27.609 23.375c-0.641-0.873-1.233-2.121-1.233-3.591h-2.667c0 2.193 0.878 3.982 1.751 5.17l2.149-1.579zM26.375 19.801l0.033-2.505-2.666-0.035-0.033 2.505 2.666 0.035zM26.408 17.278c0-5.716-4.67-10.331-10.408-10.331v2.667c4.286 0 7.741 3.442 7.741 7.664h2.667zM25.991 26.719c0.968 0 1.58-0.675 1.828-1.251 0.246-0.572 0.298-1.401-0.21-2.093l-2.149 1.579c-0.181-0.247-0.123-0.465-0.091-0.538 0.033-0.077 0.21-0.363 0.623-0.363v2.667zM8.391 17.148c0-4.15 3.396-7.534 7.609-7.534v-2.667c-5.665 0-10.276 4.556-10.276 10.2h2.667zM6.010 24.053c0.422 0 0.596 0.297 0.625 0.366 0.027 0.066 0.089 0.287-0.102 0.536l-2.117-1.622c-0.531 0.693-0.483 1.535-0.243 2.111 0.241 0.58 0.853 1.276 1.837 1.276v-2.667zM25.991 24.053h-19.981v2.667h19.981v-2.667zM18.933 25.386c0 1.348-1.214 2.614-2.933 2.614v2.667c2.993 0 5.6-2.269 5.6-5.281h-2.667zM16 28c-1.72 0-2.933-1.266-2.933-2.614h-2.667c0 3.012 2.607 5.281 5.6 5.281v-2.667zM17.511 5.474c0 0.797-0.66 1.474-1.511 1.474v2.667c2.291 0 4.178-1.837 4.178-4.14h-2.667zM16 6.947c-0.851 0-1.511-0.676-1.511-1.474h-2.667c0 2.303 1.887 4.14 4.178 4.14v-2.667zM14.489 5.474c0-0.797 0.66-1.474 1.511-1.474v-2.667c-2.291 0-4.178 1.837-4.178 4.14h2.667zM16 4c0.851 0 1.511 0.676 1.511 1.474h2.667c0-2.303-1.887-4.14-4.178-4.14v2.667z"></path>
<path fill="none" stroke="#ff321f" style="stroke: var(--color12, #ff321f)" stroke-linejoin="round" stroke-linecap="round" stroke-miterlimit="4" stroke-width="2.6667" d="M22.667 4.667c0 0 1.58 0.736 2.667 2 0.989 1.151 1.333 2 1.333 2M9.333 4.667c0 0-1.58 0.736-2.667 2-0.989 1.151-1.333 2-1.333 2"></path>
</symbol>
<symbol id="icon-add-square" viewBox="0 0 32 32">
<path stroke-linejoin="miter" stroke-linecap="round" stroke-miterlimit="4" stroke-width="2" d="M20.5 16h-4.5M16 16h-4.5M16 16v4.5M16 16v-4.5M28 16c0 6.627-5.373 12-12 12s-12-5.373-12-12 5.373-12 12-12 12 5.373 12 12z"></path>
</symbol>
<symbol id="icon-arrow-refresh" viewBox="0 0 32 32">
<path stroke-linejoin="round" stroke-linecap="round" stroke-miterlimit="4" stroke-width="2.6667" d="M25.896 10.685c-1.888-3.222-5.334-5.352-9.277-5.352-0.002 0-0.004 0-0.006 0h0c-0.002 0-0.004 0-0.006 0-4.468 0-8.297 2.733-9.908 6.618l-0.026 0.071M22.643 12.023h5.357v-5.352M7.437 21.389c1.888 3.222 5.334 5.352 9.278 5.352 0.002 0 0.005 0 0.007 0h-0c0.002 0 0.003 0 0.005 0 4.468 0 8.298-2.734 9.909-6.62l0.026-0.071M10.692 20.051h-5.359v5.352"></path>
</symbol>
<symbol id="icon-check-contained" viewBox="0 0 33 32">
<path stroke-linejoin="round" stroke-linecap="round" stroke-miterlimit="4" stroke-width="2.6667" d="M20.856 13.311l-5.689 5.689-1.94-1.939M16.667 4c-6.627 0-12 5.373-12 12s5.373 12 12 12v0c6.627 0 12-5.373 12-12s-5.373-12-12-12v0z"></path>
</symbol>
<symbol id="icon-clock" viewBox="0 0 32 32">
<path d="M20.745 20.265c0.126 0.043 0.271 0.068 0.421 0.068 0.737 0 1.334-0.597 1.334-1.334 0-0.586-0.378-1.083-0.903-1.263l-0.009-0.003-0.841 2.532zM16.667 17.5h-1.333c0 0 0 0 0 0 0 0.586 0.378 1.083 0.903 1.262l0.009 0.003 0.421-1.265zM18 11.228c0-0.736-0.597-1.333-1.333-1.333s-1.333 0.597-1.333 1.333v0h2.667zM21.588 17.735l-4.5-1.5-0.843 2.531 4.5 1.5 0.843-2.531zM18 17.5v-6.272h-2.667v6.272h2.667zM27.333 16c0 5.891-4.776 10.667-10.667 10.667v0 2.667c7.364 0 13.333-5.969 13.333-13.333h-2.667zM16.667 26.667c-5.891 0-10.667-4.776-10.667-10.667v0h-2.667c0 7.364 5.969 13.333 13.333 13.333v-2.667zM6 16c0-5.891 4.776-10.667 10.667-10.667v0-2.667c-7.364 0-13.333 5.969-13.333 13.333h2.667zM16.667 5.333c5.891 0 10.667 4.776 10.667 10.667v0h2.667c0-7.364-5.969-13.333-13.333-13.333v2.667z"></path>
</symbol>
<symbol id="icon-globe" viewBox="0 0 32 32">
<path d="M5.5 11.667c-0.736 0-1.333 0.597-1.333 1.333s0.597 1.333 1.333 1.333v0-2.667zM26.5 14.333c0.736 0 1.333-0.597 1.333-1.333s-0.597-1.333-1.333-1.333v0 2.667zM5.625 18.416c-0.736 0-1.333 0.597-1.333 1.333s0.597 1.333 1.333 1.333v0-2.667zM26.625 21.083c0.736 0 1.333-0.597 1.333-1.333s-0.597-1.333-1.333-1.333v0 2.667zM26.667 16c0 5.891-4.776 10.667-10.667 10.667v0 2.667c7.364 0 13.333-5.969 13.333-13.333h-2.667zM16 26.667c-5.891 0-10.667-4.776-10.667-10.667v0h-2.667c0 7.364 5.969 13.333 13.333 13.333v-2.667zM5.333 16c0-5.891 4.776-10.667 10.667-10.667v0-2.667c-7.364 0-13.333 5.969-13.333 13.333h2.667zM16 5.333c5.891 0 10.667 4.776 10.667 10.667v0h2.667c0-7.364-5.969-13.333-13.333-13.333v2.667zM16 26.667c-0.284 0-0.659-0.125-1.117-0.568-0.464-0.449-0.943-1.163-1.373-2.147-0.86-1.968-1.427-4.777-1.427-7.952h-2.667c0 3.453 0.611 6.643 1.651 9.020 0.519 1.187 1.171 2.229 1.963 2.996 0.8 0.772 1.805 1.317 2.971 1.317v-2.667zM12.083 16c0-3.173 0.567-5.984 1.427-7.951 0.431-0.987 0.909-1.699 1.373-2.147 0.459-0.444 0.833-0.569 1.117-0.569v-2.667c-1.165 0-2.172 0.547-2.971 1.317-0.792 0.767-1.444 1.809-1.963 2.996-1.040 2.377-1.651 5.567-1.651 9.020h2.667zM16 29.333c1.165 0 2.172-0.547 2.971-1.317 0.792-0.767 1.444-1.811 1.963-2.996 1.040-2.377 1.651-5.567 1.651-9.020h-2.667c0 3.173-0.567 5.984-1.427 7.951-0.431 0.987-0.909 1.699-1.373 2.147-0.459 0.444-0.833 0.569-1.117 0.569v2.667zM22.584 16c0-3.453-0.611-6.643-1.651-9.020-0.519-1.187-1.171-2.229-1.963-2.996-0.8-0.771-1.805-1.317-2.971-1.317v2.667c0.284 0 0.659 0.125 1.117 0.568 0.464 0.449 0.943 1.163 1.373 2.147 0.86 1.968 1.427 4.777 1.427 7.952h2.667zM5.499 14.333h21v-2.667h-20.999v2.667zM5.624 21.083h21v-2.667h-20.997v2.667z"></path>
</symbol>
<symbol id="icon-paperclip" viewBox="0 0 33 32">
<path stroke-linejoin="miter" stroke-linecap="round" stroke-miterlimit="4" stroke-width="2.6667" d="M25.943 15.34l-9.395 9.395c-2.556 2.556-6.391 2.859-8.997 0.252-2.557-2.557-2.225-6.261 0.381-8.868l10.56-10.56c0.746-0.749 1.777-1.212 2.917-1.212s2.172 0.463 2.917 1.212l0 0c0.749 0.746 1.212 1.777 1.212 2.917s-0.463 2.172-1.212 2.917l-10.747 10.745c-0.371 0.359-0.877 0.58-1.434 0.58-1.139 0-2.063-0.924-2.063-2.063 0-0.558 0.222-1.064 0.582-1.436l-0.001 0.001 9.579-9.58"></path>
</symbol>
<symbol id="icon-Photo" viewBox="0 0 32 32">
<path stroke-linejoin="miter" stroke-linecap="butt" stroke-miterlimit="4" stroke-width="0.5" d="M16 0.25c8.698 0 15.75 7.051 15.75 15.75s-7.052 15.75-15.75 15.75c-8.698 0-15.75-7.052-15.75-15.75s7.051-15.75 15.75-15.75z"></path>
<path stroke-linejoin="miter" stroke-linecap="butt" stroke-miterlimit="4" stroke-width="0.5" d="M16 10.5v5.5M16 21.5v-5.5M16 16h-5.5M16 16h5.5"></path>
</symbol>
<symbol id="icon-account" viewBox="0 0 32 32">
<path stroke-linejoin="miter" stroke-linecap="butt" stroke-miterlimit="4" stroke-width="2.6667" d="M29.333 16c0 7.364-5.97 13.333-13.333 13.333s-13.333-5.97-13.333-13.333c0-7.364 5.97-13.333 13.333-13.333s13.333 5.97 13.333 13.333z"></path>
<path stroke-linejoin="miter" stroke-linecap="round" stroke-miterlimit="4" stroke-width="2.6667" d="M6.667 24c1.412-2.359 4.507-3.972 9.333-3.972s7.921 1.613 9.333 3.972M19.835 11.84c0 2.12-1.717 3.84-3.835 3.84-2.118-0.002-3.835-1.719-3.835-3.837 0-0.001 0-0.002 0-0.003v0c0-2.12 1.717-3.84 3.835-3.84 2.118 0.002 3.835 1.719 3.835 3.837 0 0.001 0 0.002 0 0.003v-0z"></path>
</symbol>
<symbol id="icon-check-fill" viewBox="0 0 32 32">
<path stroke-linejoin="round" stroke-linecap="round" stroke-miterlimit="4" stroke-width="2.6667" d="M20 13.333l-5.967 5.333-2.033-1.819M26.667 9.333v13.333c0 2.209-1.791 4-4 4v0h-13.333c-2.209 0-4-1.791-4-4v0-13.333c0-2.209 1.791-4 4-4v0h13.333c2.209 0 4 1.791 4 4v0z"></path>
</symbol>
<symbol id="icon-check-square-contained" viewBox="0 0 32 32">
<path stroke-linejoin="round" stroke-linecap="round" stroke-miterlimit="4" stroke-width="2.6667" d="M9.333 26.667c-2.209 0-4-1.791-4-4v-13.333c0-2.209 1.791-4 4-4h13.333c2.209 0 4 1.791 4 4v13.333c0 2.209-1.791 4-4 4h-13.333z"></path>
</symbol>
<symbol id="icon-club" viewBox="0 0 32 32">
<path stroke-linejoin="round" stroke-linecap="round" stroke-miterlimit="4" stroke-width="2.6667" d="M29.333 13.333v5.333M2.667 13.333v5.333"></path>
<path stroke-linejoin="miter" stroke-linecap="butt" stroke-miterlimit="4" stroke-width="2.6667" d="M13.333 16c0 3.681 0 6.667-3.333 6.667s-3.333-2.985-3.333-6.667c0-3.681 0-6.667 3.333-6.667s3.333 2.985 3.333 6.667zM25.333 16c0 3.681 0 6.667-3.333 6.667s-3.333-2.985-3.333-6.667c0-3.681 0-6.667 3.333-6.667s3.333 2.985 3.333 6.667zM13.333 16h5.333"></path>
</symbol>
<symbol id="icon-star-default" viewBox="0 0 32 32">
<path stroke-linejoin="round" stroke-linecap="butt" stroke-miterlimit="4" stroke-width="2.6667" d="M15.327 3.619c0.275-0.558 1.071-0.558 1.347 0l3.565 7.224c0.109 0.222 0.321 0.375 0.565 0.411l7.972 1.158c0.616 0.089 0.862 0.846 0.416 1.281l-5.769 5.623c-0.177 0.172-0.258 0.421-0.216 0.665l1.362 7.94c0.105 0.613-0.539 1.081-1.089 0.792l-7.131-3.749c-0.219-0.115-0.48-0.115-0.699 0l-7.131 3.749c-0.551 0.289-1.195-0.178-1.089-0.792l1.362-7.94c0.042-0.244-0.039-0.492-0.216-0.665l-5.769-5.623c-0.446-0.434-0.2-1.191 0.416-1.281l7.972-1.158c0.245-0.036 0.456-0.189 0.565-0.411l3.565-7.224z"></path>
</symbol>
<symbol id="icon-heart-fill" viewBox="0 0 32 32">
<path stroke-linejoin="round" stroke-linecap="butt" stroke-miterlimit="4" stroke-width="2.6667" d="M5.075 8.275c1.2-1.2 2.828-1.874 4.525-1.874s3.325 0.674 4.525 1.874l1.875 1.874 1.875-1.874c0.59-0.611 1.297-1.099 2.077-1.434s1.621-0.512 2.47-0.519c0.85-0.007 1.693 0.155 2.479 0.476s1.501 0.797 2.102 1.398c0.601 0.601 1.076 1.315 1.398 2.102s0.484 1.629 0.476 2.479c-0.007 0.85-0.184 1.69-0.519 2.47s-0.823 1.487-1.434 2.077l-10.925 10.926-10.925-10.926c-1.2-1.2-1.874-2.828-1.874-4.525s0.674-3.325 1.874-4.525z"></path>
</symbol>
<symbol id="icon-star-fill" viewBox="0 0 32 32">
<path stroke-linejoin="round" stroke-linecap="butt" stroke-miterlimit="4" stroke-width="2.6667" d="M15.327 3.619c0.275-0.558 1.071-0.558 1.347 0l3.565 7.224c0.109 0.222 0.321 0.375 0.565 0.411l7.972 1.158c0.616 0.089 0.862 0.846 0.416 1.281l-5.769 5.623c-0.177 0.172-0.258 0.421-0.216 0.665l1.362 7.94c0.105 0.613-0.539 1.081-1.089 0.792l-7.131-3.749c-0.219-0.115-0.48-0.115-0.699 0l-7.131 3.749c-0.551 0.289-1.195-0.178-1.089-0.792l1.362-7.94c0.042-0.244-0.039-0.492-0.216-0.665l-5.769-5.623c-0.446-0.434-0.2-1.191 0.416-1.281l7.972-1.158c0.245-0.036 0.456-0.189 0.565-0.411l3.565-7.224z"></path>
</symbol>
<symbol id="icon-menu" viewBox="0 0 32 32">
<path stroke-linejoin="round" stroke-linecap="round" stroke-miterlimit="4" stroke-width="2.6667" d="M3.2 4.799h25.6M3.2 11.733h25.6M3.2 18.666h25.6M3.2 25.599h25.6"></path>
</symbol>
<symbol id="icon-heart-none" viewBox="0 0 32 32">
<path stroke-linejoin="round" stroke-linecap="butt" stroke-miterlimit="4" stroke-width="2.6667" d="M5.075 8.275c1.2-1.2 2.828-1.874 4.525-1.874s3.325 0.674 4.525 1.874l1.875 1.874 1.875-1.874c0.59-0.611 1.297-1.099 2.077-1.434s1.621-0.512 2.47-0.519c0.85-0.007 1.693 0.155 2.479 0.476s1.501 0.797 2.102 1.398c0.601 0.601 1.076 1.315 1.398 2.102s0.484 1.629 0.476 2.479c-0.007 0.85-0.184 1.69-0.519 2.47s-0.823 1.487-1.434 2.077l-10.925 10.926-10.925-10.926c-1.2-1.2-1.874-2.828-1.874-4.525s0.674-3.325 1.874-4.525v0z"></path>
</symbol>
<symbol id="icon-trener" viewBox="0 0 32 32">
<path stroke-linejoin="miter" stroke-linecap="round" stroke-miterlimit="4" stroke-width="2.6667" d="M3.2 24.289c1.465-2.443 4.675-4.116 9.684-4.116s8.219 1.672 9.684 4.116M23.495 18.321c2.653 1.326 3.979 2.652 5.305 5.305M20.736 8.183c1.248 0.671 2.097 1.99 2.097 3.506 0 1.473-0.8 2.759-1.989 3.447M16.863 11.69c0 2.197-1.781 3.979-3.979 3.979s-3.979-1.781-3.979-3.979c0-2.197 1.781-3.979 3.979-3.979s3.979 1.781 3.979 3.979z"></path>
</symbol>
<symbol id="icon-arrow-up" viewBox="0 0 32 32">
<path stroke-linejoin="round" stroke-linecap="round" stroke-miterlimit="4" stroke-width="2.6667" d="M16 25.333v-18.667M6.667 16l9.333-9.333 9.333 9.333"></path>
</symbol>
<symbol id="icon-logout-01" viewBox="0 0 32 32">
<path stroke-linejoin="round" stroke-linecap="round" stroke-miterlimit="4" stroke-width="2.6667" d="M20.293 27.201h4.941c0.749 0 1.467-0.295 1.997-0.82s0.827-1.237 0.827-1.98v-16.8c0-0.743-0.298-1.455-0.827-1.98s-1.248-0.82-1.997-0.82h-4.941M19.942 16.001h-16M3.942 16.001l6.114 6.4M3.942 16.001l6.114-6.4"></path>
</symbol>
<symbol id="icon-like" viewBox="0 0 32 32">
<path stroke-linejoin="round" stroke-linecap="round" stroke-miterlimit="4" stroke-width="2.6667" d="M18.544 13.63h5.721c0.409 0 0.812 0.103 1.169 0.3s0.658 0.48 0.873 0.824c0.215 0.344 0.338 0.736 0.356 1.139s-0.068 0.805-0.251 1.167l-4.203 8.296c-0.2 0.394-0.506 0.725-0.886 0.957s-0.817 0.354-1.264 0.354h-4.824c-0.196 0-0.391-0.024-0.583-0.071l-4.517-1.114M18.544 13.63v-5.926c0-0.629-0.253-1.232-0.703-1.676s-1.061-0.694-1.698-0.694h-0.114c-0.6 0-1.087 0.48-1.087 1.073 0 0.846-0.253 1.673-0.73 2.378l-4.074 6.031v10.667M18.544 13.63h-2.402M10.137 25.481h-2.402c-0.637 0-1.248-0.25-1.698-0.694s-0.704-1.047-0.704-1.676v-7.111c0-0.629 0.253-1.232 0.704-1.676s1.061-0.694 1.698-0.694h3.002"></path>
</symbol>
<symbol id="icon-arrow-down" viewBox="0 0 32 32">
<path stroke-linejoin="round" stroke-linecap="round" stroke-miterlimit="4" stroke-width="2.6667" d="M16 6.667v18.667M25.333 16l-9.333 9.333-9.333-9.333"></path>
</symbol>
<symbol id="icon-lightning-filled" viewBox="0 0 32 32">
<path stroke-linejoin="miter" stroke-linecap="butt" stroke-miterlimit="4" stroke-width="2.6667" d="M7.052 18.176l9.319-14.644c0.358-0.563 1.229-0.309 1.229 0.358v10.377c0 0.074 0.060 0.133 0.133 0.133h6.586c0.539 0 0.855 0.607 0.546 1.049l-9.253 13.218c-0.374 0.534-1.213 0.27-1.213-0.382v-8.952c0-0.074-0.060-0.133-0.133-0.133h-6.652c-0.526 0-0.845-0.581-0.562-1.025z"></path>
</symbol>
<symbol id="icon-eye-close" viewBox="0 0 32 32">
<path stroke-linejoin="miter" stroke-linecap="round" stroke-miterlimit="4" stroke-width="2.6667" d="M27.2 26l-20-20M13.6 13.922c-0.498 0.549-0.8 1.27-0.8 2.060 0 1.72 1.433 3.114 3.2 3.114 0.815 0 1.559-0.296 2.124-0.784M27.252 19.096c1.102-1.649 1.548-2.994 1.548-2.994s-2.913-9.301-12.8-9.301c-0.555 0-1.088 0.029-1.6 0.085M23.2 23.133c-1.837 1.172-4.201 2-7.2 1.951-9.764-0.16-12.8-8.982-12.8-8.982s1.41-4.504 5.6-7.244"></path>
</symbol>
<symbol id="icon-message-typing" viewBox="0 0 32 32">
<path stroke-linejoin="round" stroke-linecap="round" stroke-miterlimit="4" stroke-width="2.6667" d="M9.999 16.113v-0.113M15.999 16.113v-0.113M21.998 16.113v-0.113M27.998 16c0 1.725-0.364 3.365-1.019 4.847l1.022 7.151-6.128-1.532c-1.736 0.976-3.739 1.533-5.873 1.533-6.627 0-11.999-5.373-11.999-12s5.372-12 11.999-12c6.627 0 11.999 5.373 11.999 12z"></path>
</symbol>
<symbol id="icon-arrow-corner" viewBox="0 0 32 32">
<path stroke-linejoin="round" stroke-linecap="round" stroke-miterlimit="4" stroke-width="2.6667" d="M9.333 22.667l13.333-13.333M9.333 9.333h13.333v13.333"></path>
</symbol>
<symbol id="icon-mail" viewBox="0 0 32 32">
<path stroke-linejoin="round" stroke-linecap="round" stroke-miterlimit="4" stroke-width="2.6667" d="M5.5 8.167l10.5 6.75 11.25-6.75M7 24.406c-1.657 0-3-1.343-3-3v-11.739c0-1.657 1.343-3 3-3h18c1.657 0 3 1.343 3 3v11.739c0 1.657-1.343 3-3 3h-18z"></path>
</symbol>
<symbol id="icon-arrow-left" viewBox="0 0 32 32">
<path stroke-linejoin="round" stroke-linecap="round" stroke-miterlimit="4" stroke-width="2.6667" d="M25.333 16h-18.667M16 25.333l-9.333-9.333 9.333-9.333"></path>
</symbol>
<symbol id="icon-link-angled" viewBox="0 0 32 32">
<path stroke-linejoin="round" stroke-linecap="round" stroke-miterlimit="4" stroke-width="2.6667" d="M9.838 13.588l-2.978 2.978c-1.112 1.112-1.752 2.625-1.74 4.216s0.637 3.113 1.802 4.242c1.129 1.165 2.652 1.791 4.242 1.802 1.626 0.012 3.104-0.592 4.216-1.704l2.978-2.978M22.162 18.413l2.978-2.978c1.112-1.112 1.752-2.625 1.74-4.216s-0.637-3.113-1.802-4.242c-1.129-1.129-2.651-1.754-4.242-1.766s-3.104 0.592-4.216 1.704l-2.978 2.978M11.484 20.437l8.934-8.934"></path>
</symbol>
<symbol id="icon-location" viewBox="0 0 32 32">
<path stroke-linejoin="miter" stroke-linecap="butt" stroke-miterlimit="4" stroke-width="2.6667" d="M16 28.801c0 0 10.017-8.904 10.017-15.583 0-5.532-4.485-10.017-10.017-10.017s-10.017 4.485-10.017 10.017c0 6.678 10.017 15.583 10.017 15.583z"></path>
<path stroke-linejoin="miter" stroke-linecap="butt" stroke-miterlimit="4" stroke-width="2.6667" d="M19.2 12.801c0 1.767-1.433 3.2-3.2 3.2s-3.2-1.433-3.2-3.2c0-1.767 1.433-3.2 3.2-3.2s3.2 1.433 3.2 3.2z"></path>
</symbol>
<symbol id="icon-settings" viewBox="0 0 32 32">
<path stroke-linejoin="miter" stroke-linecap="butt" stroke-miterlimit="4" stroke-width="2.6667" d="M18.235 5.755c-0.57-2.34-3.9-2.34-4.47 0-0.085 0.352-0.252 0.678-0.487 0.953s-0.532 0.49-0.866 0.629c-0.334 0.139-0.696 0.196-1.057 0.168s-0.71-0.14-1.019-0.329c-2.058-1.254-4.413 1.101-3.159 3.159 0.81 1.329 0.091 3.063-1.421 3.431-2.342 0.569-2.342 3.9 0 4.467 0.352 0.085 0.678 0.252 0.953 0.488s0.49 0.532 0.629 0.867c0.138 0.334 0.196 0.697 0.168 1.057s-0.141 0.71-0.33 1.019c-1.254 2.058 1.101 4.413 3.159 3.159 0.309-0.189 0.658-0.301 1.019-0.329s0.723 0.029 1.058 0.168c0.334 0.138 0.631 0.354 0.867 0.629s0.402 0.602 0.488 0.953c0.569 2.341 3.9 2.341 4.467 0 0.085-0.352 0.253-0.678 0.488-0.953s0.532-0.49 0.867-0.629 0.696-0.196 1.057-0.168c0.361 0.028 0.71 0.141 1.019 0.329 2.058 1.254 4.413-1.101 3.159-3.159-0.188-0.309-0.301-0.658-0.329-1.019s0.030-0.723 0.168-1.057 0.354-0.631 0.628-0.867c0.275-0.235 0.601-0.403 0.953-0.488 2.341-0.569 2.341-3.9 0-4.467-0.352-0.085-0.678-0.252-0.953-0.488s-0.49-0.532-0.629-0.867c-0.138-0.334-0.196-0.697-0.168-1.058s0.141-0.71 0.33-1.019c1.254-2.058-1.101-4.413-3.159-3.159-0.309 0.189-0.658 0.301-1.019 0.33s-0.723-0.029-1.057-0.168c-0.334-0.138-0.631-0.354-0.867-0.629s-0.402-0.602-0.488-0.953l0.001-0.002z"></path>
<path stroke-linejoin="miter" stroke-linecap="butt" stroke-miterlimit="4" stroke-width="2.6667" d="M18.667 16c0 1.473-1.194 2.667-2.667 2.667s-2.667-1.194-2.667-2.667c0-1.473 1.194-2.667 2.667-2.667s2.667 1.194 2.667 2.667z"></path>
</symbol>
<symbol id="icon-eye-open" viewBox="0 0 32 32">
<path stroke-linejoin="miter" stroke-linecap="butt" stroke-miterlimit="4" stroke-width="2.6667" d="M19.2 16.039c0 1.72-1.433 3.114-3.2 3.114s-3.2-1.394-3.2-3.114c0-1.72 1.433-3.114 3.2-3.114s3.2 1.394 3.2 3.114z"></path>
</symbol>
<symbol id="icon-alert-circle" viewBox="0 0 32 32">
<path stroke-linejoin="round" stroke-linecap="round" stroke-miterlimit="4" stroke-width="2.6667" d="M16 16v-6M16 20.447v0.053M28 16c0 6.627-5.373 12-12 12s-12-5.373-12-12c0-6.627 5.373-12 12-12s12 5.373 12 12z"></path>
</symbol>
<symbol id="icon-search" viewBox="0 0 32 32">
<path stroke-linejoin="miter" stroke-linecap="round" stroke-miterlimit="4" stroke-width="2.6667" d="M22.569 22.719l4.631 4.48M25.707 15.253c0 5.773-4.68 10.453-10.453 10.453s-10.453-4.68-10.453-10.453c0-5.773 4.68-10.453 10.453-10.453s10.453 4.68 10.453 10.453z"></path>
</symbol>
<symbol id="icon-arrow-right" viewBox="0 0 32 32">
<path stroke-linejoin="round" stroke-linecap="round" stroke-miterlimit="4" stroke-width="2.6667" d="M6.667 16h18.667M16 6.667l9.333 9.333-9.333 9.333"></path>
</symbol>
<symbol id="icon-edit-contained" viewBox="0 0 32 32">
<path stroke-linejoin="round" stroke-linecap="round" stroke-miterlimit="4" stroke-width="2.6667" d="M14.798 5.072h-7.582c-2.512 0-4.549 2.037-4.549 4.549v15.164c0 2.512 2.037 4.549 4.549 4.549h15.164c2.512 0 4.549-2.037 4.549-4.549v-7.582M10.249 21.751l5.517-1.112c0.293-0.059 0.562-0.203 0.773-0.415l12.351-12.357c0.592-0.592 0.592-1.553-0.001-2.145l-2.616-2.613c-0.592-0.592-1.552-0.591-2.144 0.001l-12.352 12.358c-0.211 0.211-0.355 0.479-0.414 0.771l-1.114 5.511z"></path>
</symbol>
<symbol id="icon-Property-1-116" viewBox="0 0 32 32">
<path stroke-linejoin="round" stroke-linecap="butt" stroke-miterlimit="4" stroke-width="2.6667" d="M5.075 8.275c1.2-1.2 2.828-1.874 4.525-1.874s3.325 0.674 4.525 1.874l1.875 1.874 1.875-1.874c0.59-0.611 1.297-1.099 2.077-1.434s1.621-0.512 2.47-0.519c0.85-0.007 1.693 0.155 2.479 0.476s1.501 0.797 2.102 1.398c0.601 0.601 1.076 1.315 1.398 2.102s0.484 1.629 0.476 2.479c-0.007 0.85-0.184 1.69-0.519 2.47s-0.823 1.487-1.434 2.077l-10.925 10.926-10.925-10.926c-1.2-1.2-1.874-2.828-1.874-4.525s0.674-3.325 1.874-4.525v0z"></path>
</symbol>
<symbol id="icon-trash" viewBox="0 0 32 32">
<path stroke-linejoin="miter" stroke-linecap="round" stroke-miterlimit="4" stroke-width="2.6667" d="M5.333 8.235h21.333M12 4h8M20.667 28h-9.333c-1.473 0-2.667-1.264-2.667-2.823l-0.609-15.471c-0.032-0.802 0.574-1.471 1.332-1.471h13.22c0.758 0 1.364 0.668 1.332 1.471l-0.609 15.471c0 1.559-1.194 2.823-2.667 2.823z"></path>
</symbol>
<symbol id="icon-sms" viewBox="0 0 32 32">
<path d="M5.474 24.143v0zM7.025 19.784l-1.333-0.016v0.016h1.333zM7.057 17.148l1.333 0.016v-0.016h-1.333zM26.534 24.164v0zM25.042 19.784l-1.333-0.017v0.017h1.333zM25.074 17.278l1.333 0.017v-0.017h-1.333zM21.6 25.386c0-0.736-0.597-1.333-1.333-1.333s-1.333 0.597-1.333 1.333h2.667zM13.067 25.386c0-0.736-0.597-1.333-1.333-1.333s-1.333 0.597-1.333 1.333h2.667zM4.098 8.486c-0.277 0.682 0.051 1.46 0.733 1.737s1.46-0.051 1.737-0.733l-2.471-1.004zM9.714 5.949c0.65-0.346 0.897-1.153 0.551-1.803s-1.153-0.897-1.803-0.551l1.252 2.355zM23.523 3.613c-0.647-0.353-1.456-0.114-1.809 0.532s-0.114 1.456 0.533 1.809l1.276-2.341zM25.426 9.465c0.27 0.685 1.044 1.022 1.729 0.752s1.022-1.044 0.752-1.729l-2.481 0.977zM6.533 24.954c0.908-1.185 1.826-2.974 1.826-5.171h-2.667c0 1.442-0.606 2.674-1.276 3.549l2.117 1.622zM8.358 19.8l0.033-2.636-2.666-0.033-0.033 2.636 2.666 0.033zM27.609 23.375c-0.641-0.873-1.233-2.121-1.233-3.591h-2.667c0 2.193 0.878 3.982 1.751 5.17l2.149-1.579zM26.375 19.801l0.033-2.505-2.666-0.035-0.033 2.505 2.666 0.035zM26.408 17.278c0-5.716-4.67-10.331-10.408-10.331v2.667c4.286 0 7.741 3.442 7.741 7.664h2.667zM25.991 26.719c0.968 0 1.58-0.675 1.828-1.251 0.246-0.572 0.298-1.401-0.21-2.093l-2.149 1.579c-0.181-0.247-0.123-0.465-0.091-0.538 0.033-0.077 0.21-0.363 0.623-0.363v2.667zM8.391 17.148c0-4.15 3.396-7.534 7.609-7.534v-2.667c-5.665 0-10.276 4.556-10.276 10.2h2.667zM6.010 24.053c0.422 0 0.596 0.297 0.625 0.366 0.027 0.066 0.089 0.287-0.102 0.536l-2.117-1.622c-0.531 0.693-0.483 1.535-0.243 2.111 0.241 0.58 0.853 1.276 1.837 1.276v-2.667zM25.991 24.053h-19.981v2.667h19.981v-2.667zM18.933 25.386c0 1.348-1.214 2.614-2.933 2.614v2.667c2.993 0 5.6-2.269 5.6-5.281h-2.667zM16 28c-1.72 0-2.933-1.266-2.933-2.614h-2.667c0 3.012 2.607 5.281 5.6 5.281v-2.667zM17.511 5.474c0 0.797-0.66 1.474-1.511 1.474v2.667c2.291 0 4.178-1.837 4.178-4.14h-2.667zM16 6.947c-0.851 0-1.511-0.676-1.511-1.474h-2.667c0 2.303 1.887 4.14 4.178 4.14v-2.667zM14.489 5.474c0-0.797 0.66-1.474 1.511-1.474v-2.667c-2.291 0-4.178 1.837-4.178 4.14h2.667zM16 4c0.851 0 1.511 0.676 1.511 1.474h2.667c0-2.303-1.887-4.14-4.178-4.14v2.667zM6.569 9.489c0.619-1.525 1.722-2.784 3.146-3.54l-1.252-2.355c-2.007 1.067-3.524 2.821-4.364 4.891l2.471 1.004zM22.247 5.954c1.471 0.802 2.599 2.038 3.179 3.511l2.481-0.977c-0.827-2.102-2.41-3.799-4.384-4.875l-1.276 2.341z"></path>
</symbol>
<symbol id="icon-down-arrow" viewBox="0 0 32 32">
<path stroke-linejoin="round" stroke-linecap="round" stroke-miterlimit="4" stroke-width="2.6667" d="M9.333 13.333l6.668 6.107 6.666-6.107"></path>
</symbol>
<symbol id="icon-logout-02" viewBox="0 0 32 32">
<path stroke-linejoin="round" stroke-linecap="round" stroke-miterlimit="4" stroke-width="2.6667" d="M11.707 4.799h-4.941c-0.749 0-1.467 0.295-1.997 0.82s-0.827 1.237-0.827 1.98v16.8c0 0.743 0.297 1.455 0.827 1.98s1.248 0.82 1.997 0.82h4.941M12.058 15.999h16M28.058 15.999l-6.114-6.4M28.058 15.999l-6.114 6.4"></path>
</symbol>
<symbol id="icon-filter" viewBox="0 0 32 32">
<path stroke-linejoin="round" stroke-linecap="round" stroke-miterlimit="4" stroke-width="2.6667" d="M4 5.333h9.333M18.667 5.333h9.333M4 16h12M21.333 16h6.667M4 26.667h6.667M16 26.667h12M13.333 1.333v8M21.333 12v8M10.667 22.667v8"></path>
</symbol>
<symbol id="icon-help" viewBox="0 0 32 32">
<path stroke-linejoin="round" stroke-linecap="round" stroke-miterlimit="4" stroke-width="2.6667" d="M15.999 22v0.053M13 12.307c0-1.688 1.343-3.057 3-3.057s3 1.369 3 3.057c0 1.688-1.343 3.057-3 3.057 0 0-0.001 0.912-0.001 2.038M28 16c0 6.627-5.373 12-12 12s-12-5.373-12-12c0-6.627 5.373-12 12-12s12 5.373 12 12z"></path>
</symbol>
<symbol id="icon-smiley-happy" viewBox="0 0 32 32">
<path d="M12.161 12.161v-1.333c-0.736 0-1.333 0.597-1.333 1.333h1.333zM12.288 12.161h1.333c0-0.736-0.597-1.333-1.333-1.333v1.333zM19.841 12.161v-1.333c-0.736 0-1.333 0.597-1.333 1.333h1.333zM19.954 12.161h1.333c0-0.736-0.597-1.333-1.333-1.333v1.333zM12.288 12.263v1.333c0.736 0 1.333-0.597 1.333-1.333h-1.333zM12.161 12.263h-1.333c0 0.736 0.597 1.333 1.333 1.333v-1.333zM19.954 12.263v1.333c0.736 0 1.333-0.597 1.333-1.333h-1.333zM19.841 12.263h-1.333c0 0.736 0.597 1.333 1.333 1.333v-1.333zM12.697 19.191c-0.388-0.626-1.209-0.819-1.835-0.432s-0.819 1.209-0.432 1.835l2.267-1.404zM21.572 20.595c0.388-0.626 0.194-1.448-0.432-1.835s-1.448-0.194-1.835 0.432l2.267 1.404zM27.467 16.001c0 6.333-5.134 11.467-11.467 11.467v2.667c7.806 0 14.133-6.328 14.133-14.133h-2.667zM16.001 27.467c-6.333 0-11.467-5.134-11.467-11.467h-2.667c0 7.806 6.328 14.133 14.133 14.133v-2.667zM4.534 16.001c0-6.333 5.134-11.467 11.467-11.467v-2.667c-7.806 0-14.133 6.328-14.133 14.133h2.667zM16.001 4.534c6.333 0 11.467 5.134 11.467 11.467h2.667c0-7.806-6.328-14.133-14.133-14.133v2.667zM12.161 13.494h0.127v-2.667h-0.127v2.667zM19.841 13.494h0.113v-2.667h-0.113v2.667zM10.955 12.161v0.102h2.667v-0.102h-2.667zM12.288 10.93h-0.127v2.667h0.127v-2.667zM13.494 12.263v-0.102h-2.667v0.102h2.667zM18.621 12.161v0.102h2.667v-0.102h-2.667zM19.954 10.93h-0.113v2.667h0.113v-2.667zM21.174 12.263v-0.102h-2.667v0.102h2.667zM16.001 21.067c-1.373 0-2.597-0.734-3.304-1.876l-2.267 1.404c1.16 1.873 3.213 3.139 5.571 3.139v-2.667zM19.304 19.191c-0.707 1.142-1.931 1.876-3.304 1.876v2.667c2.358 0 4.411-1.266 5.571-3.139l-2.267-1.404z"></path>
</symbol>
<symbol id="icon-x" viewBox="0 0 32 32">
<path stroke-linejoin="round" stroke-linecap="round" stroke-miterlimit="4" stroke-width="2.6667" d="M24 8l-16 16M8 8l16 16"></path>
</symbol>
</defs>
</svg>
